<svg width="16" height="20" viewBox="0 0 16 20" fill="none" xmlns="http://www.w3.org/2000/svg">
<path fill-rule="evenodd" clip-rule="evenodd" d="M5.5 1C5.5 0.723858 5.72386 0.5 6 0.5C7.24756 0.5 8.4829 0.745725 9.63549 1.22314C10.7881 1.70056 11.8354 2.40033 12.7175 3.28249C13.5997 4.16464 14.2994 5.21191 14.7769 6.36451C15.2543 7.5171 15.5 8.75244 15.5 10C15.5 11.2476 15.2543 12.4829 14.7769 13.6355C14.2994 14.7881 13.5997 15.8354 12.7175 16.7175C11.8354 17.5997 10.7881 18.2994 9.63549 18.7769C8.4829 19.2543 7.24756 19.5 6 19.5C5.72386 19.5 5.5 19.2761 5.5 19C5.5 18.7239 5.72386 18.5 6 18.5C7.11624 18.5 8.22154 18.2801 9.25281 17.853C10.2841 17.4258 11.2211 16.7997 12.0104 16.0104C12.7997 15.2211 13.4258 14.2841 13.853 13.2528C14.2801 12.2215 14.5 11.1162 14.5 10C14.5 8.88376 14.2801 7.77846 13.853 6.74719C13.4258 5.71592 12.7997 4.77889 12.0104 3.98959C11.2211 3.20029 10.2841 2.57419 9.25281 2.14702C8.22154 1.71986 7.11624 1.5 6 1.5C5.72386 1.5 5.5 1.27614 5.5 1ZM6.64645 5.64645C6.84171 5.45118 7.15829 5.45118 7.35355 5.64645L11.3536 9.64645C11.5488 9.84171 11.5488 10.1583 11.3536 10.3536L7.35355 14.3536C7.15829 14.5488 6.84171 14.5488 6.64645 14.3536C6.45118 14.1583 6.45118 13.8417 6.64645 13.6464L9.79289 10.5H1C0.723858 10.5 0.5 10.2761 0.5 10C0.5 9.72386 0.723858 9.5 1 9.5H9.79289L6.64645 6.35355C6.45118 6.15829 6.45118 5.84171 6.64645 5.64645Z" fill="#0063AC"/>
</svg>
