<svg width="28" height="28" viewBox="0 0 28 28" fill="none" xmlns="http://www.w3.org/2000/svg">
<g clip-path="url(#clip0_189_1095)">
<path d="M6.39435 2.32384C6.29104 2.19095 6.16064 2.08156 6.0118 2.00294C5.86297 1.92432 5.69911 1.87826 5.53111 1.86783C5.3631 1.85741 5.19481 1.88284 5.03739 1.94246C4.87998 2.00207 4.73705 2.0945 4.6181 2.21359L2.8086 4.02484C1.96335 4.87184 1.65185 6.0706 2.0211 7.12235C3.55364 11.4756 6.04661 15.428 9.3151 18.6863C12.5735 21.9548 16.5258 24.4477 20.8791 25.9803C21.9308 26.3496 23.1296 26.0381 23.9766 25.1928L25.7861 23.3833C25.9052 23.2644 25.9976 23.1215 26.0572 22.9641C26.1168 22.8066 26.1423 22.6383 26.1319 22.4703C26.1214 22.3023 26.0754 22.1385 25.9968 21.9896C25.9181 21.8408 25.8087 21.7104 25.6758 21.6071L21.6386 18.4676C21.4966 18.3575 21.3315 18.281 21.1557 18.2441C20.9798 18.2071 20.7979 18.2105 20.6236 18.2541L16.7911 19.2113C16.2795 19.3392 15.7436 19.3324 15.2354 19.1917C14.7273 19.0509 14.2642 18.7809 13.8913 18.4081L9.59335 14.1083C9.22019 13.7357 8.94992 13.2727 8.80885 12.7645C8.66777 12.2563 8.66071 11.7203 8.78835 11.2086L9.74735 7.3761C9.79094 7.20179 9.79437 7.01986 9.75738 6.84403C9.7204 6.6682 9.64396 6.50307 9.53385 6.36109L6.39435 2.32384ZM3.29685 0.894095C3.60309 0.587756 3.971 0.350073 4.37614 0.196827C4.78129 0.043581 5.2144 -0.0217208 5.64672 0.00525767C6.07903 0.0322362 6.50067 0.150878 6.88362 0.353304C7.26656 0.555731 7.60207 0.83731 7.86785 1.17934L11.0073 5.21484C11.5831 5.95509 11.7861 6.91934 11.5586 7.82935L10.6013 11.6618C10.5519 11.8603 10.5545 12.0683 10.6091 12.2654C10.6637 12.4626 10.7683 12.6423 10.9128 12.7871L15.2126 17.0868C15.3576 17.2317 15.5376 17.3365 15.7351 17.3911C15.9326 17.4456 16.1408 17.4482 16.3396 17.3983L20.1703 16.4411C20.6194 16.3288 21.0881 16.3201 21.5411 16.4156C21.994 16.5111 22.4193 16.7083 22.7848 16.9923L26.8203 20.1318C28.2711 21.2606 28.4041 23.4043 27.1056 24.7011L25.2961 26.5106C24.0011 27.8056 22.0656 28.3743 20.2613 27.7391C15.6434 26.1143 11.4506 23.4706 7.99385 20.0041C4.5276 16.5479 1.88391 12.3556 0.258848 7.73835C-0.374652 5.93584 0.194098 3.99859 1.4891 2.70359L3.2986 0.894095H3.29685Z" fill="#0063AC"/>
</g>
<defs>
<clipPath id="clip0_189_1095">
<rect width="28" height="28" fill="white"/>
</clipPath>
</defs>
</svg>
