<svg width="25" height="26" viewBox="0 0 25 26" fill="none" xmlns="http://www.w3.org/2000/svg">
<path fill-rule="evenodd" clip-rule="evenodd" d="M7.77637 1.18606C8.99824 1.12981 9.38783 1.11731 12.5003 1.11731C15.6128 1.11731 16.0024 1.13085 17.2232 1.18606C18.4441 1.24127 19.2774 1.43606 20.0066 1.71835C20.7701 2.00689 21.4628 2.45793 22.0357 3.04127C22.6191 3.61314 23.0691 4.30481 23.3566 5.06939C23.6399 5.79856 23.8337 6.63189 23.8899 7.85064C23.9462 9.0746 23.9587 9.46418 23.9587 12.5756C23.9587 15.6881 23.9451 16.0777 23.8899 17.2996C23.8347 18.5184 23.6399 19.3517 23.3566 20.0809C23.0691 20.8455 22.6183 21.5383 22.0357 22.1111C21.4628 22.6944 20.7701 23.1444 20.0066 23.4319C19.2774 23.7152 18.4441 23.909 17.2253 23.9652C16.0024 24.0215 15.6128 24.034 12.5003 24.034C9.38783 24.034 8.99824 24.0204 7.77637 23.9652C6.55762 23.91 5.72428 23.7152 4.99512 23.4319C4.23045 23.1444 3.53764 22.6936 2.96491 22.1111C2.38197 21.5388 1.93086 20.8464 1.64303 20.0819C1.36074 19.3527 1.16699 18.5194 1.11074 17.3006C1.05449 16.0767 1.04199 15.6871 1.04199 12.5756C1.04199 9.46314 1.05553 9.07356 1.11074 7.85273C1.16595 6.63189 1.36074 5.79856 1.64303 5.06939C1.93129 4.30489 2.38274 3.61243 2.96595 3.04023C3.53787 2.45741 4.22998 2.00631 4.99408 1.71835C5.72324 1.43606 6.55658 1.24231 7.77533 1.18606H7.77637ZM17.1305 3.24856C15.9222 3.19335 15.5597 3.18189 12.5003 3.18189C9.44095 3.18189 9.07845 3.19335 7.87012 3.24856C6.75241 3.2996 6.14616 3.48606 5.74199 3.64335C5.20762 3.85168 4.82533 4.09856 4.42428 4.4996C4.04412 4.86945 3.75155 5.31969 3.56803 5.81731C3.41074 6.22148 3.22428 6.82773 3.17324 7.94543C3.11803 9.15377 3.10658 9.51627 3.10658 12.5756C3.10658 15.635 3.11803 15.9975 3.17324 17.2059C3.22428 18.3236 3.41074 18.9298 3.56803 19.334C3.75137 19.8309 4.04408 20.2819 4.42428 20.6517C4.79408 21.0319 5.24512 21.3246 5.74199 21.5079C6.14616 21.6652 6.75241 21.8517 7.87012 21.9027C9.07845 21.9579 9.43991 21.9694 12.5003 21.9694C15.5607 21.9694 15.9222 21.9579 17.1305 21.9027C18.2482 21.8517 18.8545 21.6652 19.2587 21.5079C19.793 21.2996 20.1753 21.0527 20.5764 20.6517C20.9566 20.2819 21.2493 19.8309 21.4326 19.334C21.5899 18.9298 21.7764 18.3236 21.8274 17.2059C21.8826 15.9975 21.8941 15.635 21.8941 12.5756C21.8941 9.51627 21.8826 9.15377 21.8274 7.94543C21.7764 6.82773 21.5899 6.22148 21.4326 5.81731C21.2243 5.28293 20.9774 4.90064 20.5764 4.4996C20.2065 4.11947 19.7563 3.8269 19.2587 3.64335C18.8545 3.48606 18.2482 3.2996 17.1305 3.24856V3.24856ZM11.0368 16.1079C11.8541 16.4482 12.7643 16.4941 13.6117 16.2379C14.4592 15.9816 15.1914 15.4391 15.6833 14.703C16.1751 13.9669 16.3962 13.0828 16.3087 12.2018C16.2212 11.3208 15.8305 10.4975 15.2035 9.87252C14.8037 9.47301 14.3203 9.16711 13.7882 8.97684C13.256 8.78656 12.6883 8.71664 12.1258 8.77212C11.5634 8.82759 11.0203 9.00708 10.5355 9.29765C10.0508 9.58823 9.63652 9.98267 9.32252 10.4526C9.00851 10.9225 8.80261 11.4562 8.71961 12.0152C8.63662 12.5742 8.67861 13.1447 8.84255 13.6856C9.0065 14.2264 9.28833 14.7242 9.66774 15.1431C10.0472 15.5619 10.5147 15.8915 11.0368 16.1079ZM8.33574 8.41106C8.88264 7.86416 9.53191 7.43033 10.2465 7.13435C10.961 6.83837 11.7269 6.68603 12.5003 6.68603C13.2738 6.68603 14.0396 6.83837 14.7542 7.13435C15.4687 7.43033 16.118 7.86416 16.6649 8.41106C17.2118 8.95796 17.6456 9.60723 17.9416 10.3218C18.2376 11.0363 18.3899 11.8022 18.3899 12.5756C18.3899 13.3491 18.2376 14.1149 17.9416 14.8295C17.6456 15.5441 17.2118 16.1933 16.6649 16.7402C15.5604 17.8447 14.0623 18.4653 12.5003 18.4653C10.9383 18.4653 9.44026 17.8447 8.33574 16.7402C7.23123 15.6357 6.61072 14.1377 6.61072 12.5756C6.61072 11.0136 7.23123 9.51558 8.33574 8.41106V8.41106ZM19.6962 7.56314C19.8317 7.4353 19.9402 7.28156 20.0152 7.11103C20.0903 6.9405 20.1303 6.75665 20.1331 6.57036C20.1358 6.38407 20.1011 6.19913 20.031 6.02649C19.961 5.85384 19.857 5.69701 19.7253 5.56527C19.5935 5.43353 19.4367 5.32956 19.2641 5.25952C19.0914 5.18947 18.9065 5.15478 18.7202 5.1575C18.5339 5.16022 18.35 5.20028 18.1795 5.27533C18.009 5.35037 17.8553 5.45887 17.7274 5.59439C17.4788 5.85796 17.3426 6.20806 17.3479 6.57036C17.3532 6.93266 17.4995 7.27864 17.7557 7.53485C18.0119 7.79107 18.3579 7.93734 18.7202 7.94262C19.0825 7.9479 19.4326 7.81178 19.6962 7.56314V7.56314Z" fill="#0063AC"/>
</svg>
