<svg width="28" height="28" viewBox="0 0 28 28" fill="none" xmlns="http://www.w3.org/2000/svg">
<path d="M6.12467 4.66669H21.8747C22.8432 4.66662 23.775 5.03717 24.4789 5.7023C25.1829 6.36744 25.6057 7.27675 25.6605 8.24369L25.6663 8.45835V19.5417C25.6664 20.5102 25.2959 21.442 24.6307 22.146C23.9656 22.8499 23.0563 23.2727 22.0893 23.3275L21.8747 23.3334H6.12467C5.15618 23.3334 4.22437 22.9629 3.52041 22.2977C2.81644 21.6326 2.39367 20.7233 2.33884 19.7564L2.33301 19.5417V8.45835C2.33294 7.48986 2.70349 6.55805 3.36862 5.85408C4.03376 5.15012 4.94307 4.72735 5.91001 4.67252L6.12467 4.66669ZM23.9163 10.9352L14.408 15.9402C14.3006 15.9969 14.1827 16.0307 14.0615 16.0393C13.9404 16.0479 13.8188 16.0313 13.7045 15.9904L13.5925 15.9414L4.08301 10.9364V19.5417C4.08303 20.0541 4.27571 20.5477 4.6228 20.9246C4.96989 21.3016 5.44602 21.5342 5.95667 21.5764L6.12467 21.5834H21.8747C22.3872 21.5833 22.8811 21.3905 23.258 21.0431C23.635 20.6958 23.8675 20.2194 23.9093 19.7085L23.9163 19.5417V10.9352ZM21.8747 6.41669H6.12467C5.61229 6.41671 5.11864 6.60939 4.74172 6.95648C4.3648 7.30357 4.13217 7.7797 4.09001 8.29035L4.08301 8.45835V8.95885L13.9997 14.1774L23.9163 8.95769V8.45835C23.9163 7.94578 23.7235 7.45197 23.3761 7.07503C23.0288 6.69808 22.5524 6.46557 22.0415 6.42369L21.8747 6.41669Z" fill="#0063AC"/>
</svg>
