<svg width="24" height="24" viewBox="0 0 24 24" fill="none" xmlns="http://www.w3.org/2000/svg">
<path d="M21.5625 12C21.5626 10.4092 21.1657 8.84353 20.408 7.44478C19.6502 6.04603 18.5554 4.85843 17.2228 3.98956C15.8903 3.12069 14.362 2.59799 12.7764 2.46883C11.1908 2.33967 9.5981 2.60811 8.14246 3.24986C6.68683 3.8916 5.41429 4.88635 4.44013 6.14402C3.46596 7.40168 2.82096 8.88251 2.56353 10.4524C2.30611 12.0222 2.4444 13.6315 2.96588 15.1344C3.48736 16.6373 4.37555 17.9864 5.55 19.0594L5.6625 19.1532C7.40911 20.7044 9.664 21.5612 12 21.5612C14.336 21.5612 16.5909 20.7044 18.3375 19.1532L18.45 19.0594C19.4316 18.1642 20.2154 17.0739 20.7514 15.8583C21.2873 14.6427 21.5636 13.3286 21.5625 12ZM3.5625 12C3.56062 10.6226 3.896 9.26563 4.53936 8.04766C5.18272 6.82968 6.11448 5.78774 7.25329 5.01283C8.39209 4.23791 9.7033 3.75359 11.0724 3.60215C12.4415 3.45072 13.8269 3.63679 15.1075 4.1441C16.3881 4.65141 17.5251 5.46453 18.4191 6.51247C19.313 7.5604 19.9369 8.81127 20.2361 10.1558C20.5352 11.5004 20.5007 12.8978 20.1354 14.2259C19.7702 15.5541 19.0853 16.7726 18.1406 17.7751C17.2546 16.4045 15.934 15.3711 14.3906 14.8407C15.1611 14.3275 15.746 13.58 16.0588 12.7088C16.3716 11.8375 16.3958 10.8887 16.1277 10.0026C15.8597 9.11657 15.3136 8.34028 14.5702 7.78856C13.8269 7.23683 12.9257 6.93895 12 6.93895C11.0743 6.93895 10.1731 7.23683 9.42978 7.78856C8.68643 8.34028 8.14035 9.11657 7.87228 10.0026C7.60421 10.8887 7.62837 11.8375 7.9412 12.7088C8.25402 13.58 8.83891 14.3275 9.60938 14.8407C8.06596 15.3711 6.74537 16.4045 5.85938 17.7751C4.38276 16.215 3.56069 14.1481 3.5625 12ZM8.8125 11.25C8.8125 10.6196 8.99945 10.0034 9.34969 9.47917C9.69994 8.95499 10.1978 8.54644 10.7802 8.30518C11.3626 8.06393 12.0035 8.00081 12.6219 8.1238C13.2402 8.24679 13.8081 8.55037 14.2539 8.99615C14.6997 9.44193 15.0033 10.0099 15.1263 10.6282C15.2492 11.2465 15.1861 11.8874 14.9449 12.4699C14.7036 13.0523 14.2951 13.5501 13.7709 13.9004C13.2467 14.2506 12.6304 14.4375 12 14.4375C11.1554 14.4351 10.3461 14.0985 9.74883 13.5012C9.15159 12.904 8.81498 12.0947 8.8125 11.25ZM6.69375 18.5625C7.2452 17.6484 8.02349 16.8921 8.95316 16.3672C9.88284 15.8423 10.9324 15.5665 12 15.5665C13.0676 15.5665 14.1172 15.8423 15.0468 16.3672C15.9765 16.8921 16.7548 17.6484 17.3063 18.5625C15.8038 19.7756 13.931 20.4373 12 20.4373C10.069 20.4373 8.19622 19.7756 6.69375 18.5625Z" fill="#878787"/>
</svg>
