<svg width="26" height="26" viewBox="0 0 26 26" fill="none" xmlns="http://www.w3.org/2000/svg">
<path d="M25.5968 23.7145L17.4812 15.5989C18.7405 13.9708 19.4218 11.9802 19.4218 9.88643C19.4218 7.38019 18.4437 5.0302 16.6749 3.25834C14.9062 1.48647 12.5499 0.511475 10.0468 0.511475C7.54372 0.511475 5.18748 1.4896 3.41874 3.25834C1.64687 5.02708 0.671875 7.38019 0.671875 9.88643C0.671875 12.3895 1.65 14.7458 3.41874 16.5145C5.18748 18.2864 7.5406 19.2614 10.0468 19.2614C12.1406 19.2614 14.1281 18.5801 15.7562 17.3239L23.8718 25.4364C23.8956 25.4602 23.9238 25.4791 23.9549 25.492C23.986 25.5048 24.0194 25.5115 24.053 25.5115C24.0867 25.5115 24.12 25.5048 24.1511 25.492C24.1822 25.4791 24.2105 25.4602 24.2343 25.4364L25.5968 24.077C25.6206 24.0532 25.6395 24.0249 25.6524 23.9938C25.6652 23.9627 25.6719 23.9294 25.6719 23.8957C25.6719 23.8621 25.6652 23.8288 25.6524 23.7977C25.6395 23.7666 25.6206 23.7383 25.5968 23.7145V23.7145ZM14.9968 14.8364C13.6718 16.1583 11.9156 16.8864 10.0468 16.8864C8.17809 16.8864 6.42185 16.1583 5.09686 14.8364C3.77499 13.5114 3.04686 11.7552 3.04686 9.88643C3.04686 8.01769 3.77499 6.25832 5.09686 4.93646C6.42185 3.61459 8.17809 2.88646 10.0468 2.88646C11.9156 2.88646 13.6749 3.61146 14.9968 4.93646C16.3187 6.26145 17.0468 8.01769 17.0468 9.88643C17.0468 11.7552 16.3187 13.5145 14.9968 14.8364Z" fill="white"/>
</svg>
