<svg width="35" height="36" viewBox="0 0 35 36" fill="none" xmlns="http://www.w3.org/2000/svg">
<g clip-path="url(#clip0_106_446)">
<path fill-rule="evenodd" clip-rule="evenodd" d="M0 18.1005C0 27.0495 6.31896 34.491 14.5833 36V22.9995H10.2083V18H14.5833V13.9995C14.5833 9.4995 17.4023 7.0005 21.3894 7.0005C22.6523 7.0005 24.0144 7.2 25.2773 7.3995V12H23.0417C20.9023 12 20.4167 13.0995 20.4167 14.5005V18H25.0833L24.306 22.9995H20.4167V36C28.681 34.491 35 27.051 35 18.1005C35 8.145 27.125 0 17.5 0C7.875 0 0 8.145 0 18.1005Z" fill="#00256A"/>
</g>
<defs>
<clipPath id="clip0_106_446">
<rect width="35" height="36" fill="white"/>
</clipPath>
</defs>
</svg>
