<svg width="28" height="28" viewBox="0 0 28 28" fill="none" xmlns="http://www.w3.org/2000/svg">
<g clip-path="url(#clip0_189_1099)">
<path d="M13.9996 5.22668C13.1182 5.22668 12.2565 5.48806 11.5236 5.97777C10.7908 6.46747 10.2195 7.16351 9.88221 7.97786C9.5449 8.79221 9.45664 9.6883 9.6286 10.5528C9.80057 11.4173 10.225 12.2114 10.8483 12.8347C11.4716 13.458 12.2657 13.8824 13.1302 14.0544C13.9947 14.2263 14.8908 14.1381 15.7051 13.8008C16.5195 13.4635 17.2155 12.8922 17.7052 12.1593C18.1949 11.4264 18.4563 10.5648 18.4563 9.68335C18.4563 8.50137 17.9868 7.3678 17.151 6.53201C16.3152 5.69623 15.1816 5.22668 13.9996 5.22668ZM13.9996 12.5845C13.4259 12.5845 12.865 12.4143 12.3879 12.0955C11.9108 11.7768 11.5389 11.3237 11.3194 10.7936C11.0998 10.2634 11.0423 9.68013 11.1543 9.11737C11.2662 8.55461 11.5425 8.03768 11.9482 7.63196C12.354 7.22623 12.8709 6.94992 13.4337 6.83798C13.9964 6.72604 14.5797 6.7835 15.1098 7.00307C15.64 7.22265 16.093 7.59449 16.4118 8.07158C16.7306 8.54867 16.9007 9.10957 16.9007 9.68335C16.8987 10.4514 16.5921 11.1873 16.0483 11.7297C15.5044 12.2721 14.7677 12.5767 13.9996 12.5767V12.5845Z" fill="#0063AC"/>
<path d="M14.0001 1.55554C11.5775 1.55757 9.2541 2.51819 7.53741 4.22759C5.82071 5.937 4.85022 8.25628 4.83789 10.6789C4.83789 14.3111 6.87567 17.3522 8.369 19.5689L8.64122 19.9733C10.127 22.1267 11.7209 24.2034 13.4168 26.1955L14.0079 26.8878L14.599 26.1955C16.2947 24.2033 17.8886 22.1265 19.3746 19.9733L19.6468 19.5611C21.1323 17.3444 23.1701 14.3111 23.1701 10.6789C23.1578 8.25494 22.1862 5.93448 20.4678 4.22485C18.7495 2.51522 16.4241 1.55551 14.0001 1.55554ZM18.3479 18.6667L18.0679 19.0789C16.7301 21.0855 14.9568 23.3333 14.0001 24.4455C13.0823 23.3333 11.2701 21.0855 9.93234 19.0789L9.66011 18.6667C8.28345 16.6133 6.39345 13.8055 6.39345 10.6478C6.39345 9.64884 6.5902 8.6597 6.97247 7.73682C7.35474 6.81394 7.91504 5.97538 8.62139 5.26904C9.32773 4.56269 10.1663 4.00239 11.0892 3.62012C12.0121 3.23785 13.0012 3.0411 14.0001 3.0411C14.999 3.0411 15.9882 3.23785 16.9111 3.62012C17.8339 4.00239 18.6725 4.56269 19.3788 5.26904C20.0852 5.97538 20.6455 6.81394 21.0278 7.73682C21.41 8.6597 21.6068 9.64884 21.6068 10.6478C21.6068 13.8367 19.7246 16.6444 18.3479 18.6667Z" fill="#0063AC"/>
</g>
<defs>
<clipPath id="clip0_189_1099">
<rect width="28" height="28" fill="white"/>
</clipPath>
</defs>
</svg>
