<svg width="35" height="36" viewBox="0 0 35 36" fill="none" xmlns="http://www.w3.org/2000/svg">
<path fill-rule="evenodd" clip-rule="evenodd" d="M10.8866 1.599C12.5972 1.518 13.1427 1.5 17.5002 1.5C21.8577 1.5 22.4031 1.5195 24.1122 1.599C25.8214 1.6785 26.9881 1.959 28.0089 2.3655C29.0779 2.781 30.0477 3.4305 30.8497 4.2705C31.6664 5.094 32.2964 6.09 32.6989 7.191C33.0956 8.241 33.3668 9.441 33.4456 11.196C33.5243 12.9585 33.5418 13.5195 33.5418 18C33.5418 22.482 33.5229 23.043 33.4456 24.8025C33.3683 26.5575 33.0956 27.7575 32.6989 28.8075C32.2964 29.9086 31.6654 30.9063 30.8497 31.731C30.0477 32.571 29.0779 33.219 28.0089 33.633C26.9881 34.041 25.8214 34.32 24.1152 34.401C22.4031 34.482 21.8577 34.5 17.5002 34.5C13.1427 34.5 12.5972 34.4805 10.8866 34.401C9.18037 34.3215 8.0137 34.041 6.99287 33.633C5.92234 33.2189 4.9524 32.5699 4.15058 31.731C3.33447 30.907 2.70291 29.9098 2.29995 28.809C1.90475 27.759 1.6335 26.559 1.55475 24.804C1.476 23.0415 1.4585 22.4805 1.4585 18C1.4585 13.518 1.47745 12.957 1.55475 11.199C1.63204 9.441 1.90475 8.241 2.29995 7.191C2.70351 6.09012 3.33554 5.09297 4.15204 4.269C4.95272 3.42975 5.92168 2.78017 6.99141 2.3655C8.01225 1.959 9.17891 1.68 10.8852 1.599H10.8866ZM23.9825 4.569C22.2908 4.4895 21.7833 4.473 17.5002 4.473C13.217 4.473 12.7095 4.4895 11.0179 4.569C9.45308 4.6425 8.60433 4.911 8.0385 5.1375C7.29037 5.4375 6.75516 5.793 6.1937 6.3705C5.66148 6.90308 5.25188 7.55142 4.99495 8.268C4.77475 8.85 4.5137 9.723 4.44225 11.3325C4.36495 13.0725 4.34891 13.5945 4.34891 18C4.34891 22.4055 4.36495 22.9275 4.44225 24.6675C4.5137 26.277 4.77475 27.15 4.99495 27.732C5.25162 28.4475 5.66141 29.097 6.1937 29.6295C6.71141 30.177 7.34287 30.5985 8.0385 30.8625C8.60433 31.089 9.45308 31.3575 11.0179 31.431C12.7095 31.5105 13.2156 31.527 17.5002 31.527C21.7847 31.527 22.2908 31.5105 23.9825 31.431C25.5472 31.3575 26.396 31.089 26.9618 30.8625C27.71 30.5625 28.2452 30.207 28.8066 29.6295C29.3389 29.097 29.7487 28.4475 30.0054 27.732C30.2256 27.15 30.4866 26.277 30.5581 24.6675C30.6354 22.9275 30.6514 22.4055 30.6514 18C30.6514 13.5945 30.6354 13.0725 30.5581 11.3325C30.4866 9.723 30.2256 8.85 30.0054 8.268C29.7137 7.4985 29.3681 6.948 28.8066 6.3705C28.2888 5.82311 27.6585 5.40182 26.9618 5.1375C26.396 4.911 25.5472 4.6425 23.9825 4.569ZM15.4512 23.0865C16.5955 23.5764 17.8697 23.6426 19.0561 23.2736C20.2425 22.9046 21.2676 22.1234 21.9563 21.0634C22.6449 20.0034 22.9544 18.7303 22.8319 17.4617C22.7094 16.193 22.1625 15.0075 21.2845 14.1075C20.7249 13.5322 20.0482 13.0917 19.3031 12.8177C18.5581 12.5437 17.7633 12.443 16.9759 12.5229C16.1885 12.6028 15.4281 12.8613 14.7495 13.2797C14.0708 13.6981 13.4908 14.2661 13.0512 14.9428C12.6116 15.6194 12.3234 16.3879 12.2072 17.1929C12.091 17.9979 12.1498 18.8194 12.3793 19.5983C12.6088 20.3771 13.0034 21.0939 13.5345 21.6971C14.0657 22.3003 14.7203 22.7748 15.4512 23.0865ZM11.6697 12.003C12.4354 11.2155 13.3444 10.5908 14.3448 10.1645C15.3451 9.73833 16.4174 9.51896 17.5002 9.51896C18.583 9.51896 19.6552 9.73833 20.6556 10.1645C21.6559 10.5908 22.5649 11.2155 23.3306 12.003C24.0962 12.7905 24.7036 13.7255 25.118 14.7544C25.5323 15.7834 25.7456 16.8863 25.7456 18C25.7456 19.1137 25.5323 20.2166 25.118 21.2456C24.7036 22.2745 24.0962 23.2095 23.3306 23.997C21.7843 25.5875 19.687 26.481 17.5002 26.481C15.3133 26.481 13.2161 25.5875 11.6697 23.997C10.1234 22.4065 9.25471 20.2493 9.25471 18C9.25471 15.7507 10.1234 13.5935 11.6697 12.003ZM27.5743 10.782C27.7641 10.5979 27.916 10.3765 28.021 10.131C28.1261 9.8854 28.1822 9.62065 28.186 9.3524C28.1898 9.08414 28.1412 8.81782 28.0432 8.56921C27.9451 8.32061 27.7995 8.09477 27.6151 7.90506C27.4307 7.71535 27.2111 7.56564 26.9694 7.46478C26.7277 7.36392 26.4688 7.31396 26.208 7.31787C25.9472 7.32178 25.6898 7.37948 25.451 7.48754C25.2123 7.59561 24.9971 7.75184 24.8181 7.947C24.47 8.32654 24.2794 8.83068 24.2868 9.3524C24.2942 9.87411 24.499 10.3723 24.8577 10.7413C25.2164 11.1102 25.7008 11.3208 26.208 11.3284C26.7152 11.3361 27.2053 11.14 27.5743 10.782Z" fill="#00256A"/>
</svg>
