<svg width="112" height="88" viewBox="0 0 112 88" fill="none" xmlns="http://www.w3.org/2000/svg">
<g clip-path="url(#clip0_187_10)">
<path d="M110.998 39.2995C109.081 34.0893 103.377 30.9609 96.0854 29.8667C96.4368 30.2511 96.7511 30.6677 97.0241 31.111V31.1505C97.4316 31.8104 97.7361 32.5283 97.9271 33.2796C97.9271 33.3546 97.9628 33.4297 97.9826 33.5087L98.0182 33.6627C100.114 43.1232 87.7439 58.9788 68.2448 70.7027C60.2043 75.5376 43.7471 84.761 35.679 88.0001L61.3173 78.1249L81.973 70.1576L82.6899 69.885L83.482 69.5769C83.989 69.3833 84.4921 69.1819 84.9872 68.9844L85.0466 68.9607C89.9976 66.9856 94.6001 65.0422 98.1608 62.68C103.417 59.6582 115.541 51.6238 110.998 39.2995Z" fill="#E30613"/>
<path d="M87.9738 1.30748C87.6279 0.857168 87.2714 0.421342 86.9044 0C88.8387 7.07025 89.5723 14.4136 89.0749 21.7255C87.8629 39.7774 79.4976 55.4632 67.1755 65.8163C69.2794 64.4999 71.3018 63.0581 73.2316 61.4989C94.0418 44.6992 100.64 17.7675 87.9738 1.30748Z" fill="#009640"/>
<path d="M42.1194 29.6533H51.5461L65.2585 65.129H56.6912L42.1194 29.6533Z" fill="#08447E"/>
<path d="M71.2591 29.6533H81.0106L65.3693 63.632L63.4404 50.3834L71.2591 29.6533Z" fill="#08447E"/>
<path d="M39.331 29.6533H30.5459V65.129H39.331V29.6533Z" fill="#08447E"/>
<path d="M12.2904 44.0159L9.28809 50.8495H24.8026V44.0159H12.2904Z" fill="#08447E"/>
<path d="M11.9299 29.6533C8.77449 29.6533 5.74764 30.9004 3.51233 33.1215C1.27701 35.3426 0.0154339 38.3567 0.00390625 41.5036V65.1251H8.80881V41.5391C8.8088 40.7104 9.13808 39.9155 9.72455 39.3284C10.311 38.7413 11.1069 38.4098 11.9378 38.4067H27.5672V29.6573L11.9299 29.6533Z" fill="#08447E"/>
</g>
<defs>
<clipPath id="clip0_187_10">
<rect width="112" height="88" fill="white"/>
</clipPath>
</defs>
</svg>
