<svg width="120" height="65" viewBox="0 0 120 65" fill="none" xmlns="http://www.w3.org/2000/svg">
<g clip-path="url(#clip0_338_756)">
<mask id="mask0_338_756" style="mask-type:luminance" maskUnits="userSpaceOnUse" x="0" y="0" width="120" height="65">
<path d="M120 65H0V0H120V65Z" fill="white"/>
</mask>
<g mask="url(#mask0_338_756)">
<path d="M0.999805 64.4L0.799805 0.400024L116.6 32.6L0.999805 64.4Z" fill="white"/>
<path d="M2.09961 62.9C2.09961 62.8 2.09961 2.40002 2.09961 2.30002C2.19961 2.30002 113.6 32.5 113.7 32.6L2.09961 62.9ZM105.6 32L3.59961 4.30002H3.49961V31.7C3.59961 31.7 12.6996 31.7 12.7996 31.7C12.7996 31.5 12.8996 30.9 12.8996 30.7L13.0996 30.5H19.9996C19.9996 30 20.0996 28.7 20.0996 28.7L20.2996 28.5H23.7996C23.7996 27.9 23.7996 27 23.7996 25.9L23.6996 25.7V25.5C23.6996 25.5 23.7996 25.4 23.7996 25.3H23.9996C23.9996 24.6 23.9996 23.4 23.9996 23.4L23.8996 23.2V23C23.8996 23 23.9996 22.9 23.9996 22.8C23.9996 22.6 23.9996 22 23.9996 22L24.1996 21.8H26.1996V21.7L26.3996 21.5H26.6996C26.6996 20.7 26.7996 16.8 26.7996 16.4C26.6996 16.3 26.4996 16.1 26.5996 16L26.7996 15.8L27.4996 15.7C27.3996 15.3 27.5996 14.6 27.5996 14.2C27.3996 12.8 29.0996 12.3 29.2996 13.6C29.2996 13.9 29.3996 14.3 29.2996 14.6C29.2996 14.7 29.2996 15.4 29.2996 15.6C29.3996 15.6 29.8996 15.7 29.9996 15.7L30.1996 15.9V16L29.9996 16.2C29.9996 16.3 29.9996 20.1 30.0996 21.2C30.1996 21.2 30.3996 21.2 30.3996 21.2C30.3996 21.3 30.4996 21.4 30.5996 21.5C31.1996 21.5 33.9996 21.7 34.6996 21.7C34.7996 21.8 34.8996 21.9 34.8996 21.9C34.8996 21.9 34.8996 22.2 34.8996 22.6L35.0996 22.8V23L34.9996 23.4C34.9996 24 34.9996 24.6 34.9996 25.3L35.1996 25.5V25.6L35.0996 25.7C35.0996 27 35.0996 28.2 35.0996 28.4C35.1996 28.4 45.7996 28.5 45.9996 28.5C46.0996 28.6 46.1996 28.7 46.1996 28.7C46.1996 28.7 46.1996 29.9 46.1996 30.2C46.3996 30.2 64.5996 30.3 64.7996 30.3L64.9996 30.5C64.9996 30.5 65.3996 31.5 65.3996 31.6C73.4996 31.7 97.7996 32 105.6 32ZM28.3996 14.6L28.8996 14.7L29.0996 14.6V13.9H28.0996L27.9996 14L27.8996 14.5L28.2996 14.6H28.3996ZM107.7 32.7C107.2 32.4 102.8 32.6 102.1 32.6H3.49961V33.5L3.69961 33.6V33.7H12.7996L12.8996 34.8L13.0996 35L13.2996 35.2H19.9996C19.9996 35.7 20.0996 36.8 20.0996 36.8L20.2996 37L20.4996 37.2H23.7996C23.7996 37.6 23.7996 38.5 23.7996 39.4L23.6996 39.5V39.7L23.7996 39.9V40C23.7996 41.1 23.7996 42 23.7996 42.1L23.6996 42.3V42.5L23.7996 42.7V43.5L23.9996 43.7L24.1996 43.9H26.0996L26.1996 44L26.3996 44.2H26.5996C26.5996 45.7 26.5996 48.5 26.5996 49.1C26.4996 49.2 26.2996 49.4 26.3996 49.5L26.5996 49.7H26.6996H27.2996C27.2996 49.9 27.1996 50.6 27.3996 50.7C27.2996 51.4 27.3996 52.4 28.2996 52.5C29.7996 52.7 29.3996 50.6 29.3996 49.7C29.5996 49.7 30.2996 49.6 30.3996 49.4C30.3996 49.3 30.3996 49.2 30.3996 49.2L30.1996 49C30.1996 48.9 30.2996 45.6 30.2996 44.3H30.4996L30.6996 44C31.2996 44 34.0996 43.8 34.7996 43.8L34.9996 43.6C34.9996 43.6 34.9996 43.6 34.9996 43.5L35.1996 43.3C35.1996 43.3 35.1996 42.9 35.1996 42.6L35.3996 42.4V42.2L35.1996 42C35.1996 41.4 35.1996 40.6 35.1996 39.8L35.3996 39.6V39.4L35.2996 39.3C35.2996 38.4 35.2996 37.6 35.2996 37.2L45.9996 37.1L46.1996 36.9C46.1996 36.9 46.1996 36.9 46.1996 36.8L46.3996 36.6C46.3996 36.6 46.3996 35.8 46.3996 35.4L64.7996 35.2L64.9996 35L65.0996 34.8L65.1996 34.7L65.4996 33.7H92.8996C95.2996 33.6 105.3 33.1 107.7 32.7Z" fill="#0063AC"/>
<path d="M28.9996 51V51.7H28.0996C28.0996 51.6 28.0996 51 28.0996 50.9C28.1996 50.9 28.7996 51 28.9996 51Z" fill="#0063AC"/>
</g>
</g>
<defs>
<clipPath id="clip0_338_756">
<rect width="120" height="65" fill="white" transform="matrix(1 0 0 -1 0 65)"/>
</clipPath>
</defs>
</svg>
