<?xml version="1.0" encoding="utf-8"?>
<!-- Generator: Adobe Illustrator 25.3.1, SVG Export Plug-In . SVG Version: 6.00 Build 0)  -->
<svg version="1.1" id="Livello_1" xmlns="http://www.w3.org/2000/svg" xmlns:xlink="http://www.w3.org/1999/xlink" x="0px" y="0px"
	 viewBox="0 0 120 65" style="enable-background:new 0 0 120 65;" xml:space="preserve">
<style type="text/css">
	.st0{clip-path:url(#SVGID_2_);}
	.st1{fill:#FFFFFF;}
	.st2{fill:#0063AC;}
</style>
<g>
	<defs>
		<rect id="SVGID_1_" width="120" height="65"/>
	</defs>
	<clipPath id="SVGID_2_">
		<use xlink:href="#SVGID_1_"  style="overflow:visible;"/>
	</clipPath>
	<g class="st0">
		<path class="st1" d="M1,0.6l-0.2,64l115.8-32.2L1,0.6z"/>
		<path class="st2" d="M2.1,2.1c0,0.1,0,60.5,0,60.6c0.1,0,111.5-30.2,111.6-30.3L2.1,2.1z M105.6,33L3.6,60.7H3.5V33.3
			c0.1,0,9.2,0,9.3,0c0,0.2,0.1,0.8,0.1,1l0.2,0.2H20c0,0.5,0.1,1.8,0.1,1.8l0.2,0.2h3.5c0,0.6,0,1.5,0,2.6l-0.1,0.2v0.2
			c0,0,0.1,0.1,0.1,0.2H24c0,0.7,0,1.9,0,1.9l-0.1,0.2V42c0,0,0.1,0.1,0.1,0.2c0,0.2,0,0.8,0,0.8l0.2,0.2h2v0.1l0.2,0.2h0.3
			c0,0.8,0.1,4.7,0.1,5.1c-0.1,0.1-0.3,0.3-0.2,0.4l0.2,0.2l0.7,0.1c-0.1,0.4,0.1,1.1,0.1,1.5c-0.2,1.4,1.5,1.9,1.7,0.6
			c0-0.3,0.1-0.7,0-1c0-0.1,0-0.8,0-1c0.1,0,0.6-0.1,0.7-0.1l0.2-0.2V49L30,48.8c0-0.1,0-3.9,0.1-5c0.1,0,0.3,0,0.3,0
			c0-0.1,0.1-0.2,0.2-0.3c0.6,0,3.4-0.2,4.1-0.2c0.1-0.1,0.2-0.2,0.2-0.2s0-0.3,0-0.7l0.2-0.2V42L35,41.6c0-0.6,0-1.2,0-1.9l0.2-0.2
			v-0.1l-0.1-0.1c0-1.3,0-2.5,0-2.7c0.1,0,10.7-0.1,10.9-0.1c0.1-0.1,0.2-0.2,0.2-0.2s0-1.2,0-1.5c0.2,0,18.4-0.1,18.6-0.1l0.2-0.2
			c0,0,0.4-1,0.4-1.1C73.5,33.3,97.8,33,105.6,33z M28.4,50.4l0.5-0.1l0.2,0.1v0.7h-1L28,51l-0.1-0.5l0.4-0.1H28.4 M107.7,32.3
			c-0.5,0.3-4.9,0.1-5.6,0.1H3.5v-0.9l0.2-0.1v-0.1h9.1l0.1-1.1l0.2-0.2l0.2-0.2H20c0-0.5,0.1-1.6,0.1-1.6l0.2-0.2l0.2-0.2h3.3
			c0-0.4,0-1.3,0-2.2l-0.1-0.1v-0.2l0.1-0.2V25c0-1.1,0-2,0-2.1l-0.1-0.2v-0.2l0.1-0.2v-0.8l0.2-0.2l0.2-0.2h1.9l0.1-0.1l0.2-0.2
			h0.2c0-1.5,0-4.3,0-4.9c-0.1-0.1-0.3-0.3-0.2-0.4l0.2-0.2h0.1h0.6c0-0.2-0.1-0.9,0.1-1c-0.1-0.7,0-1.7,0.9-1.8
			c1.5-0.2,1.1,1.9,1.1,2.8c0.2,0,0.9,0.1,1,0.3c0,0.1,0,0.2,0,0.2L30.2,16c0,0.1,0.1,3.4,0.1,4.7h0.2l0.2,0.3
			c0.6,0,3.4,0.2,4.1,0.2l0.2,0.2c0,0,0,0,0,0.1l0.2,0.2c0,0,0,0.4,0,0.7l0.2,0.2v0.2L35.2,23c0,0.6,0,1.4,0,2.2l0.2,0.2v0.2
			l-0.1,0.1c0,0.9,0,1.7,0,2.1L46,27.9l0.2,0.2c0,0,0,0,0,0.1l0.2,0.2c0,0,0,0.8,0,1.2l18.4,0.2L65,30l0.1,0.2l0.1,0.1l0.3,1h27.4
			C95.3,31.4,105.3,31.9,107.7,32.3"/>
		<path class="st2" d="M29,14l0-0.7l-0.9,0c0,0.1,0,0.7,0,0.8C28.2,14.1,28.8,14,29,14z"/>
	</g>
</g>
</svg>
