<svg width="1920" height="581" viewBox="0 0 1920 581" fill="none" xmlns="http://www.w3.org/2000/svg">
<g clip-path="url(#clip0_173_21)">
<path d="M-129.023 -40V1188.4L2136.67 574.356L-129.023 -40ZM-98.0753 -0.494442L2020.92 574.356L-98.6949 1148.58L-98.0753 -0.494442Z" fill="white"/>
<path d="M-98.697 -0.494385V1148.58L2020.3 574.356L-98.697 -0.494385ZM1857.83 588.976L-70.2246 1111.26V574.356V557.247H106.179L108.344 532.984L112.987 528.629H242.968C242.968 522.408 245.753 494.101 245.753 494.101L250.395 489.746H315.695C315.695 486.013 315.695 465.794 315.695 444.952L313.22 442.153V439.042L315.385 435.621H317.242C317.242 415.09 317.242 396.737 317.242 395.182L314.457 391.76V388.649L316.624 385.228V369.363L320.957 365.009H358.403V363.142L362.117 358.787H368.616C368.616 351.944 368.616 274.177 368.616 274.177C368.616 274.177 368.616 265.467 368.616 262.668L365.521 259.246L363.974 256.135V254.58L367.687 251.47H381.304V235.605L383.161 232.183V217.874V213.208C385.342 207.739 389.259 203.146 394.303 200.143C396.72 198.679 399.538 198.026 402.349 198.277C404.592 198.645 406.738 199.469 408.654 200.7C410.57 201.93 412.215 203.54 413.491 205.431C415.865 207.929 417.476 211.061 418.133 214.453V218.185V233.428V235.916V251.47L432.678 253.958L436.392 256.758V252.714V255.513L433.297 259.557C433.297 262.046 433.297 333.28 434.845 354.743H441.343L444.748 360.343H462.698L522.427 364.386L526.76 369.053C526.76 369.053 526.76 374.03 526.76 382.117L529.855 385.539V388.649L527.378 391.138C527.378 402.958 527.378 417.89 527.378 432.821L530.473 436.242V439.353L528.307 441.22C528.307 463.928 528.307 483.836 528.307 487.257L734.42 489.124L738.753 493.79C738.753 493.79 738.753 516.498 738.753 522.408L1091.25 525.519L1095.58 528.629L1103.01 553.826H1624.79H1853.8L1910.13 569.068H1907.65L1857.83 588.976Z" fill="#F3F7F9"/>
<path d="M1746.11 589.287H1628.81H1106.1L1098.68 609.506L1094.34 612.617L741.848 615.417C741.848 621.638 741.848 644.345 741.848 644.345L737.515 649.012L531.403 650.878C531.403 654.611 531.403 677.319 531.403 701.893L533.569 704.07V706.87L530.474 710.603C530.474 723.356 530.474 736.421 530.474 746.997L532.95 749.486V752.597L529.856 756.018C529.856 764.106 529.856 769.083 529.856 769.083L525.522 773.438L465.793 777.482H447.843L444.439 783.392H437.94C437.94 804.856 436.392 876.712 436.392 878.578L439.487 882.622V885.422L435.774 888.533L421.538 891.021V906.263V909.063V924.305V928.349C420.74 932.288 418.824 935.911 416.023 938.781C413.223 941.651 409.657 943.646 405.754 944.525C400.493 944.525 393.066 942.969 386.567 929.282V924.927V910.618L384.71 906.886V891.332L371.402 889.777L367.379 886.666V885.111L368.926 882L372.021 878.578C372.021 875.468 372.021 867.069 372.021 867.069C372.021 867.069 372.021 789.302 370.473 782.459H363.975L360.261 777.793V781.526H322.814L318.481 777.171C318.481 777.171 318.481 765.04 318.481 761.307L316.315 757.885V754.774L319.1 751.352C319.1 751.352 319.1 734.555 319.1 716.202H316.934L314.768 713.091V709.98L317.243 706.87C317.243 684.473 317.243 661.454 317.243 657.41H251.944L247.302 653.367C247.302 653.367 245.135 625.06 244.516 618.838H114.535L109.893 614.483L107.726 595.508H-68.6768V578.71V1111.26L1857.83 588.976L1746.11 589.287Z" fill="white"/>
<path d="M1856.59 588.976H1857.83L1910.75 574.356H1910.44L1856.59 588.976Z" fill="#F3F7F9"/>
<path d="M1910.13 574.356L1856.28 588.976H1856.59L1910.44 574.356H1910.13Z" fill="#F3F7F9"/>
<path d="M1802.12 574.356H-70.2219V591.154H106.181L108.347 610.129L112.99 614.484H242.97C242.97 620.705 245.755 649.012 245.755 649.012L250.397 653.056H316.626C316.626 657.1 316.626 680.119 316.626 702.516L314.151 705.626V708.737L316.316 711.847H318.483C318.483 730.2 318.483 745.754 318.483 746.998L315.698 750.42V753.53L317.864 756.952C317.864 760.685 317.864 772.816 317.864 772.816L322.197 777.171H359.644V778.727L363.358 783.393H369.857C369.857 790.236 371.404 868.003 371.404 868.003C371.404 868.003 371.404 876.401 371.404 879.512L368.31 882.934L366.762 886.045V887.6L370.785 890.71L384.092 892.266V907.819L385.949 911.552V920.573L392.449 918.707V916.218H401.423L418.754 911.552V908.752V893.51L432.99 891.022L436.704 887.911V885.111L433.609 881.067C433.609 878.268 433.609 807.345 435.156 785.881H441.656L445.06 779.971H463.01L522.739 775.927L527.071 771.572C527.071 771.572 527.071 766.595 527.071 758.507L530.166 755.085V751.975L527.691 749.486C527.691 738.91 527.691 725.845 527.691 713.092L530.786 709.359V706.559L528.619 704.382C528.619 679.808 528.619 657.1 528.619 653.367L734.732 651.501L739.064 646.834C739.064 646.834 739.064 624.127 739.064 617.906L1091.56 615.106L1095.89 611.995L1103.32 591.776H1626.03H1853.5L1907.35 577.155L1802.12 574.356Z" fill="#F3F7F9"/>
<path d="M1856.9 559.114H1855.04L1910.75 574.045H1911.99L1910.75 574.356H1913.22L1856.9 559.114Z" fill="white"/>
<path d="M1855.04 559.114H1627.89H1106.11L1098.68 533.917L1094.35 530.807L741.849 527.696C741.849 521.785 741.849 499.078 741.849 499.078L737.517 494.412L531.404 492.546C531.404 489.124 531.404 469.215 531.404 446.507L533.571 444.641V441.531L530.476 438.109C530.476 423.178 530.476 407.002 530.476 396.426L532.951 393.937V390.827L529.857 387.405C529.857 379.317 529.857 374.34 529.857 374.34L525.524 369.674L465.795 365.63H447.844L444.441 360.031H437.942C437.942 338.567 436.394 266.711 436.394 264.845L439.489 260.801V258.001V256.135L435.775 253.336L421.23 250.847V235.294V232.805V217.563V213.83C420.574 210.438 418.963 207.307 416.588 204.809C415.312 202.918 413.666 201.308 411.75 200.077C409.835 198.847 407.69 198.023 405.446 197.654C402.635 197.403 399.817 198.057 397.399 199.521C392.355 202.524 388.439 207.117 386.258 212.586V217.252V231.561L384.402 234.982V250.847H370.785L367.071 253.957V252.713L368.618 255.824L371.713 259.246C371.713 262.045 371.713 270.755 371.713 270.755C371.713 270.755 371.713 348.522 371.713 355.365H365.214L361.501 359.72V361.586H324.053L319.721 365.941V381.806L317.554 385.227V388.338L320.339 391.76C320.339 393.315 320.339 411.668 320.339 432.199H318.483L316.316 435.62V438.731L318.792 441.531C318.792 462.372 318.792 482.591 318.792 486.324H253.492L248.85 490.679C248.85 490.679 246.684 518.986 246.065 525.207H116.083L111.441 529.562L109.275 553.825H-67.1274V570.934H1913.54L1855.04 559.114ZM414.111 226.895H394.305V212.275H414.111V226.895Z" fill="white"/>
<path d="M1685.45 574.356V574.044L-11.4248 574.356H348.189H1685.45Z" fill="white"/>
<path d="M1685.45 574.356H1801.81L1801.5 574.044H1685.45V574.356Z" fill="white"/>
<path d="M1910.75 574.044L1911.06 574.356H1910.44H1910.75L1911.98 574.044H1910.75Z" fill="white"/>
<path d="M1801.81 574.356H1911.06L1910.75 574.044H1801.5L1801.81 574.356Z" fill="white"/>
<path d="M1911.18 573.139L1910.3 573.378L1910.37 573.67L1911.25 573.43L1911.18 573.139Z" fill="white"/>
<path d="M405.136 226.895L394.304 224.095V226.895H405.136Z" fill="#F3F7F9"/>
<path d="M414.111 226.895V212.586H394.304V224.095L405.136 226.895H414.111Z" fill="#F3F7F9"/>
</g>
<defs>
<clipPath id="clip0_173_21">
<rect width="1920" height="581" fill="white"/>
</clipPath>
</defs>
</svg>
