<svg width="660" height="50" viewBox="0 0 660 50" fill="none" xmlns="http://www.w3.org/2000/svg">
<g opacity="0.9" clip-path="url(#clip0_103_349)" filter="url(#filter0_b_103_349)">
<path d="M22.4292 25.5666L6.36861 9.33277L6.22185 9.18442H6.01317H0H-1.20401L-0.354196 10.0373L19.6463 30.1107V44.579V45.079H20.1463H24.7549H25.2549V44.579V30.1107L45.2554 10.0373L46.1053 9.18442H44.9012H38.8881H38.6798L38.5331 9.33229L22.4292 25.5666Z" fill="white" fill-opacity="0.9" stroke="white"/>
<path d="M46.4813 45.079H46.7718L46.9157 44.8265L52.8289 34.4481H75.8155L81.6414 44.8238L81.7847 45.079H82.0774H87.4761H88.3459L87.9082 44.3274L67.5863 9.43279L67.4416 9.18442H67.1542H61.7555H61.4681L61.3234 9.43279L41.0015 44.3274L40.5638 45.079H41.4336H46.4813ZM73.3625 30.1545H55.2895L64.3861 14.3202L73.3625 30.1545Z" fill="white" fill-opacity="0.9" stroke="white"/>
<path d="M137.394 31.3441L137.465 30.7957L136.912 30.7801L132.479 30.6551L132.075 30.6437L131.98 31.0366C131.193 34.2664 129.536 36.861 126.803 38.6582C124.058 40.463 120.182 41.4943 114.909 41.4943C108.191 41.4943 103.631 39.7149 100.753 37.0469C97.8784 34.3812 96.623 30.7723 96.623 26.9859C96.623 22.0628 98.4808 18.4759 101.651 16.1038C104.843 13.7158 109.419 12.5191 114.909 12.5191C119.034 12.5191 122.89 13.1802 125.865 14.6312C128.828 16.0761 130.895 18.2891 131.537 21.4165L131.619 21.816H132.026H136.679H137.271L137.172 21.2323C136.369 16.505 133.189 13.2647 129.02 11.221C124.861 9.18151 119.677 8.30896 114.733 8.30896C105.897 8.30896 99.8068 10.9261 95.9216 14.6111C92.0414 18.2913 90.3999 23.0008 90.3999 27.1109C90.3999 32.8717 92.7969 37.6048 97.0637 40.8846C101.317 44.1543 107.393 45.9545 114.733 45.9545C127.724 45.9545 136.339 39.4932 137.394 31.3441Z" fill="white" fill-opacity="0.9" stroke="white"/>
<path d="M144.843 9.18442H144.343V9.68442V44.579V45.079H144.843H149.495H149.995V44.579V28.2779H181.344V44.579V45.079H181.844H186.496H186.996V44.579V9.68442V9.18442H186.496H181.844H181.344V9.68442V23.9427H149.995V9.68442V9.18442H149.495H144.843Z" fill="white" fill-opacity="0.9" stroke="white"/>
<path d="M191.263 13.0196V13.5196H191.763H208.82V44.579V45.079H209.32H213.929H214.429V44.579V13.5196H231.485H231.985V13.0196V9.68442V9.18442H231.485H191.763H191.263V9.68442V13.0196Z" fill="white" fill-opacity="0.9" stroke="white"/>
<path d="M300.276 31.3441L300.347 30.7965L299.795 30.7801L295.582 30.6551L295.177 30.6431L295.081 31.0366C294.295 34.2664 292.638 36.861 289.905 38.6582C287.16 40.463 283.283 41.4943 278.01 41.4943C271.293 41.4943 266.732 39.7149 263.855 37.0469C260.98 34.3812 259.725 30.7723 259.725 26.9859C259.725 22.0628 261.582 18.4759 264.753 16.1038C267.944 13.7158 272.521 12.5191 278.01 12.5191C282.002 12.5191 285.86 13.1796 288.87 14.6321C291.871 16.08 293.997 18.2949 294.638 21.4165L294.72 21.816H295.128H299.781H300.375L300.273 21.23C299.448 16.5047 296.269 13.265 292.106 11.2211C287.951 9.18154 282.778 8.30896 277.835 8.30896C268.977 8.30896 262.886 10.9259 259.006 14.6114C255.131 18.2921 253.501 23.0017 253.501 27.1109C253.501 32.8717 255.898 37.6048 260.165 40.8846C264.419 44.1543 270.495 45.9545 277.835 45.9545C290.654 45.9545 299.222 39.4902 300.276 31.3441Z" fill="white" fill-opacity="0.9" stroke="white"/>
<path d="M307.769 9.18442H307.269V9.68442V44.579V45.079H307.769H340.819H341.319V44.579V41.2438V40.7438H340.819H312.877V9.68442V9.18442H312.377H307.769Z" fill="white" fill-opacity="0.9" stroke="white"/>
<path d="M346.569 9.18442H346.069V9.68442V31.0715C346.069 34.2902 346.647 38.0492 349.572 40.9918C352.494 43.9305 357.655 45.9545 366.584 45.9545C375.512 45.9545 380.674 43.9305 383.595 40.9918C386.521 38.0492 387.098 34.2902 387.098 31.0715V9.68442V9.18442H386.598H381.946H381.446V9.68442V31.0715C381.446 33.2836 380.986 35.0268 380.203 36.4021C379.421 37.7764 378.3 38.8113 376.932 39.5838C374.179 41.1391 370.446 41.6193 366.584 41.6193C362.722 41.6193 358.989 41.1391 356.235 39.5838C354.868 38.8113 353.746 37.7764 352.964 36.4021C352.181 35.0268 351.722 33.2836 351.722 31.0715V9.68442V9.18442H351.222H346.569Z" fill="white" fill-opacity="0.9" stroke="white"/>
<path d="M396.167 9.18442H395.665L395.667 9.68568L395.755 44.4552L395.756 44.954H396.255H421.141C424.66 44.954 428.451 44.2788 431.381 42.6446C434.332 40.9984 436.433 38.3589 436.433 34.49V34.4778L436.432 34.4655C436.312 32.0247 435.207 29.7274 433.354 28.0492C432.139 26.9494 430.665 26.1705 429.075 25.7653C430.595 25.1994 431.805 24.4116 432.711 23.4649C434.07 22.0452 434.721 20.2943 434.721 18.481C434.721 15.8838 433.73 13.5324 431.566 11.8438C429.417 10.1671 426.166 9.18442 421.712 9.18442H396.167ZM419.166 24.3179H401.317L401.277 13.5196H420.702C423.265 13.5196 425.35 13.7533 426.785 14.5048C427.49 14.8736 428.029 15.3631 428.396 16.0103C428.766 16.6607 428.981 17.5035 428.981 18.6061C428.981 19.6997 428.745 20.5799 428.322 21.2909C427.899 22.0018 427.271 22.5738 426.439 23.0231C424.758 23.9317 422.282 24.3179 419.166 24.3179ZM420.307 40.7439H401.319V28.6532H421.448C424.114 28.6532 426.354 29.0574 427.912 29.994C429.429 30.9061 430.341 32.3455 430.341 34.5734C430.341 36.7756 429.321 38.2845 427.582 39.2717C425.809 40.2784 423.276 40.7439 420.307 40.7439Z" fill="white" fill-opacity="0.9" stroke="white"/>
<path d="M509.908 27.1109C509.908 20.7786 506.914 16.0551 502.303 12.9339C497.71 9.82484 491.525 8.30896 485.091 8.30896C478.658 8.30896 472.473 9.82484 467.88 12.9339C463.269 16.0551 460.275 20.7786 460.275 27.1109C460.275 33.443 463.269 38.1767 467.879 41.3083C472.472 44.428 478.657 45.9545 485.091 45.9545C491.526 45.9545 497.711 44.428 502.304 41.3083C506.914 38.1767 509.908 33.443 509.908 27.1109ZM503.904 27.1526C503.904 32.2291 501.625 35.8306 498.154 38.1826C494.662 40.549 489.941 41.6611 485.091 41.6611C480.242 41.6611 475.521 40.549 472.029 38.1826C468.558 35.8306 466.279 32.2291 466.279 27.1526C466.279 22.0764 468.558 18.4855 472.028 16.144C475.52 13.7878 480.241 12.6858 485.091 12.6858C489.942 12.6858 494.663 13.7878 498.155 16.144C501.625 18.4855 503.904 22.0764 503.904 27.1526Z" fill="white" fill-opacity="0.9" stroke="white"/>
<path d="M517.22 9.18442H516.72V9.68442V44.579V45.079H517.22H550.271H550.771V44.579V41.2438V40.7438H550.271H522.329V9.68442V9.18442H521.829H517.22Z" fill="white" fill-opacity="0.9" stroke="white"/>
<path d="M555.625 9.18442H555.125V9.68442V44.454V44.954H555.625H580.512C584.031 44.954 587.832 44.2788 590.773 42.645C593.735 40.9995 595.847 38.3602 595.847 34.49C595.847 30.3831 592.902 27.1235 588.156 25.8693C589.812 25.2979 591.119 24.4711 592.082 23.4649C593.441 22.0452 594.092 20.2943 594.092 18.481C594.092 15.8838 593.101 13.5324 590.937 11.8438C588.788 10.1671 585.537 9.18442 581.083 9.18442H555.625ZM578.669 24.3179H560.776L560.736 13.5196H580.161C582.724 13.5196 584.809 13.7533 586.244 14.5048C586.948 14.8736 587.487 15.3631 587.855 16.0103C588.224 16.6607 588.439 17.5035 588.439 18.6061C588.439 19.6997 588.204 20.58 587.781 21.2912C587.359 22.0022 586.732 22.5742 585.903 23.0234C584.227 23.9318 581.762 24.3179 578.669 24.3179ZM579.722 40.7439H560.776L560.736 28.6532H580.863C583.529 28.6532 585.768 29.0574 587.327 29.994C588.844 30.9061 589.756 32.3455 589.756 34.5734C589.756 36.7756 588.736 38.2845 586.997 39.2717C585.224 40.2784 582.691 40.7439 579.722 40.7439Z" fill="white" fill-opacity="0.9" stroke="white"/>
<path d="M603.819 9.18442H603.319V9.68442V44.5374V45.0374H603.819H608.471H608.971V44.5374V9.68442V9.18442H608.471H603.819Z" fill="white" fill-opacity="0.9" stroke="white"/>
<path d="M618.961 45.079H619.251L619.395 44.8279L625.352 34.4481H648.339L654.165 44.8238L654.309 45.079H654.601H660H660.87L660.432 44.3274L640.11 9.43279L639.966 9.18442H639.678H634.279H633.992L633.847 9.43279L613.525 44.3274L613.088 45.079H613.958H618.961ZM645.755 30.1545H627.682L636.778 14.3202L645.755 30.1545Z" fill="white" fill-opacity="0.9" stroke="white"/>
</g>
<defs>
<filter id="filter0_b_103_349" x="-4" y="-4" width="668" height="58" filterUnits="userSpaceOnUse" color-interpolation-filters="sRGB">
<feFlood flood-opacity="0" result="BackgroundImageFix"/>
<feGaussianBlur in="BackgroundImageFix" stdDeviation="2"/>
<feComposite in2="SourceAlpha" operator="in" result="effect1_backgroundBlur_103_349"/>
<feBlend mode="normal" in="SourceGraphic" in2="effect1_backgroundBlur_103_349" result="shape"/>
</filter>
<clipPath id="clip0_103_349">
<rect width="660" height="50" fill="white"/>
</clipPath>
</defs>
</svg>
