<?xml version="1.0" encoding="utf-8"?>
<!-- Generator: Adobe Illustrator 25.3.1, SVG Export Plug-In . SVG Version: 6.00 Build 0)  -->
<svg version="1.1" id="Livello_1" xmlns="http://www.w3.org/2000/svg" xmlns:xlink="http://www.w3.org/1999/xlink" x="0px" y="0px"
	 viewBox="0 0 1920 620" style="enable-background:new 0 0 1920 620;" xml:space="preserve">
<style type="text/css">
	.st0{fill:none;}
	.st1{fill:#F3F7F9;}
</style>
<g>
	<path class="st0" d="M414.7,267.5c-3.9,0-15.4,0-19.3,0c0-1.9,0-13.3,0-15.2h19.3V267.5z"/>
	<polygon class="st0" points="1920,580.8 1920,0 0,0 0,67.5 	"/>
	<path class="st1" d="M0,593.7h102.6l1.9-20.9l3.9-3.8l3.9-3.8h129.1c0-9.5,1.9-30.4,1.9-30.4l3.9-3.8l3.9-3.8h63.6
		c0-7.6,0-24.7,0-41.7l-1.9-1.9v-3.8l1.9-3.8v-1.9c0-20.9,0-37.9,0-39.8l-1.9-3.8v-3.8l1.9-3.8v-15.2l3.9-3.8l3.9-3.8h36.6l1.9-1.9
		l3.9-3.8h3.9c0-28.5,0-81.6,0-92.9c-1.9-1.9-5.8-5.7-3.9-7.6l3.9-3.8h1.9H382c0-3.8-1.9-17.1,1.9-19c-1.9-13.3,0-32.2,17.3-34.1
		c28.9-3.8,21.2,36,21.2,53.1c3.9,0,17.3,1.9,19.3,5.7c0,1.9,0,3.8,0,3.8l-3.9,3.8c0,1.9,1.9,64.5,1.9,89.2h3.9l3.9,5.7
		c11.6,0,65.5,3.8,79,3.8l3.9,3.8c0,0,0,0,0,1.9l3.9,3.8c0,0,0,7.6,0,13.3l3.9,3.8v3.8l-3.9,3.8c0,11.4,0,26.6,0,41.7l3.9,3.8v3.8
		l-1.9,1.9c0,17.1,0,32.2,0,39.8l206.2,1.9l3.9,3.8c0,0,0,0,0,1.9l3.9,3.8c0,0,0,15.2,0,22.8l354.5,3.8l3.8,3.8l1.9,3.8l1.9,1.9
		l5.8,19h527.9c41.2,1.7,209.3-5.7,274.1,10.2v-23.1L0,67.5V593.7z"/>
	<path class="st1" d="M395.5,267.5c3.9,0,15.4,0,19.3,0v-15.2h-19.3C395.5,254.2,395.5,265.6,395.5,267.5z"/>
</g>
</svg>
